<svg width="20" height="20" viewBox="0 0 20 20" fill="none" xmlns="http://www.w3.org/2000/svg">
<g clip-path="url(#clip0_35_104)">
<path d="M6.66667 18.3332C7.12691 18.3332 7.5 17.9601 7.5 17.4998C7.5 17.0396 7.12691 16.6665 6.66667 16.6665C6.20643 16.6665 5.83334 17.0396 5.83334 17.4998C5.83334 17.9601 6.20643 18.3332 6.66667 18.3332Z" stroke="#1FA9E4" stroke-width="1.66667" stroke-linecap="round" stroke-linejoin="round"/>
<path d="M15.8333 18.3332C16.2936 18.3332 16.6667 17.9601 16.6667 17.4998C16.6667 17.0396 16.2936 16.6665 15.8333 16.6665C15.3731 16.6665 15 17.0396 15 17.4998C15 17.9601 15.3731 18.3332 15.8333 18.3332Z" stroke="#1FA9E4" stroke-width="1.66667" stroke-linecap="round" stroke-linejoin="round"/>
<path d="M1.70834 1.7085H3.375L5.59167 12.0585C5.67298 12.4375 5.88389 12.7764 6.1881 13.0167C6.4923 13.257 6.87076 13.3838 7.25834 13.3752H15.4083C15.7876 13.3745 16.1554 13.2446 16.4509 13.0067C16.7463 12.7688 16.9518 12.4373 17.0333 12.0668L18.4083 5.87516H4.26667" stroke="#1FA9E4" stroke-width="1.66667" stroke-linecap="round" stroke-linejoin="round"/>
</g>
<defs>
<clipPath id="clip0_35_104">
<rect width="20" height="20" fill="white"/>
</clipPath>
</defs>
</svg>
