<svg width="20" height="20" viewBox="0 0 20 20" fill="none" xmlns="http://www.w3.org/2000/svg">
<path d="M14.1667 17.5C14.3877 17.5 14.5996 17.4122 14.7559 17.2559C14.9122 17.0996 15 16.8876 15 16.6666V12.2083C15 11.8275 15.2633 11.505 15.6058 11.3408C16.315 11.0025 16.8818 10.4246 17.2064 9.70904C17.5309 8.99348 17.5922 8.1863 17.3795 7.42993C17.1668 6.67356 16.6938 6.01663 16.0439 5.57508C15.394 5.13354 14.609 4.93575 13.8275 5.01663C13.5056 4.26847 12.9716 3.63104 12.2913 3.18316C11.6111 2.73528 10.8145 2.49658 10 2.49658C9.18554 2.49658 8.38894 2.73528 7.70869 3.18316C7.02844 3.63104 6.49436 4.26847 6.1725 5.01663C5.39132 4.93631 4.60686 5.13438 3.95744 5.57591C3.30802 6.01744 2.83534 6.67408 2.62274 7.43005C2.41013 8.18602 2.47126 8.99278 2.79534 9.70809C3.11942 10.4234 3.68564 11.0013 4.39417 11.34C4.73667 11.505 5 11.8275 5 12.2075V16.6666C5 16.8876 5.0878 17.0996 5.24408 17.2559C5.40036 17.4122 5.61232 17.5 5.83333 17.5H14.1667Z" stroke="#2D2D2D" stroke-width="1.66667" stroke-linecap="round" stroke-linejoin="round"/>
<path d="M5 14.1667H15" stroke="#2D2D2D" stroke-width="1.66667" stroke-linecap="round" stroke-linejoin="round"/>
</svg>
