<svg width="20" height="20" viewBox="0 0 20 20" fill="none" xmlns="http://www.w3.org/2000/svg">
<path d="M14.1667 17.5C14.3877 17.5 14.5997 17.4122 14.756 17.2559C14.9122 17.0996 15 16.8876 15 16.6666V12.2083C15 11.8275 15.2634 11.505 15.6059 11.3408C16.315 11.0025 16.8819 10.4246 17.2064 9.70904C17.5309 8.99348 17.5922 8.1863 17.3796 7.42993C17.1669 6.67356 16.6938 6.01663 16.0439 5.57508C15.394 5.13353 14.6091 4.93575 13.8275 5.01663C13.5057 4.26847 12.9716 3.63104 12.2913 3.18316C11.6111 2.73528 10.8145 2.49658 10 2.49658C9.18558 2.49658 8.38898 2.73528 7.70873 3.18316C7.02848 3.63104 6.4944 4.26847 6.17254 5.01663C5.39136 4.93631 4.6069 5.13438 3.95748 5.57591C3.30806 6.01744 2.83538 6.67408 2.62278 7.43005C2.41017 8.18602 2.4713 8.99278 2.79538 9.70809C3.11945 10.4234 3.68567 11.0013 4.3942 11.34C4.7367 11.505 5.00004 11.8275 5.00004 12.2075V16.6666C5.00004 16.8876 5.08784 17.0996 5.24412 17.2559C5.4004 17.4122 5.61236 17.5 5.83337 17.5H14.1667Z" stroke="#1FA9E4" stroke-width="1.66667" stroke-linecap="round" stroke-linejoin="round"/>
<path d="M5 14.1666H15" stroke="#1FA9E4" stroke-width="1.66667" stroke-linecap="round" stroke-linejoin="round"/>
</svg>
