<svg width="32" height="32" viewBox="0 0 32 32" fill="none" xmlns="http://www.w3.org/2000/svg">
<path d="M22.6667 28C23.0203 28 23.3594 27.8595 23.6095 27.6095C23.8595 27.3594 24 27.0203 24 26.6667V19.5333C24 18.924 24.4213 18.408 24.9693 18.1453C26.104 17.6041 27.0109 16.6794 27.5302 15.5345C28.0494 14.3896 28.1475 13.0981 27.8072 11.8879C27.4669 10.6778 26.7101 9.62667 25.6702 8.92019C24.6304 8.21372 23.3744 7.89726 22.124 8.02667C21.609 6.82961 20.7545 5.80973 19.6661 5.09312C18.5777 4.37651 17.3031 3.99459 16 3.99459C14.6969 3.99459 13.4223 4.37651 12.3339 5.09312C11.2455 5.80973 10.391 6.82961 9.876 8.02667C8.62611 7.89816 7.37098 8.21507 6.33191 8.92152C5.29284 9.62796 4.53655 10.6786 4.19638 11.8881C3.85621 13.0977 3.95402 14.3885 4.47254 15.533C4.99107 16.6775 5.89702 17.6022 7.03067 18.144C7.57867 18.408 8 18.924 8 19.532V26.6667C8 27.0203 8.14048 27.3594 8.39053 27.6095C8.64057 27.8595 8.97971 28 9.33333 28H22.6667Z" stroke="#1FA9E4" stroke-width="2.66667" stroke-linecap="round" stroke-linejoin="round"/>
<path d="M8 22.6667H24" stroke="#1FA9E4" stroke-width="2.66667" stroke-linecap="round" stroke-linejoin="round"/>
</svg>
